<?xml version="1.0" encoding="utf-8"?>
<!-- Generator: Adobe Illustrator 25.2.3, SVG Export Plug-In . SVG Version: 6.00 Build 0)  -->
<svg version="1.1" id="Layer_1" xmlns="http://www.w3.org/2000/svg" xmlns:xlink="http://www.w3.org/1999/xlink" x="0px" y="0px"
	 viewBox="0 0 126 126" style="enable-background:new 0 0 126 126;" xml:space="preserve">
<style type="text/css">
	.st0{opacity:0.8;}
	.st1{fill:#ED1C24;}
	.st2{fill:#00A651;}
	.st3{fill:#FBB040;}
</style>
<g class="st0">
	<g>
		<path class="st1" d="M47.67,63c0-12.24,6.06-23.06,15.33-29.64c-5.93-4.21-13.17-6.69-21-6.69C21.93,26.67,5.67,42.93,5.67,63
			c0,20.07,16.27,36.33,36.33,36.33c7.83,0,15.07-2.48,21-6.69C53.73,86.06,47.67,75.24,47.67,63z"/>
		<path class="st2" d="M84,26.67c-7.83,0-15.07,2.48-21,6.69c9.27,6.58,15.33,17.4,15.33,29.64c0,12.24-6.06,23.06-15.33,29.64
			c5.93,4.21,13.17,6.69,21,6.69c20.07,0,36.33-16.27,36.33-36.33C120.33,42.93,104.07,26.67,84,26.67z"/>
	</g>
	<path class="st3" d="M47.67,63c0,12.24,6.06,23.06,15.33,29.64c9.27-6.58,15.33-17.4,15.33-29.64c0-12.24-6.06-23.06-15.33-29.64
		C53.73,39.94,47.67,50.76,47.67,63z"/>
</g>
</svg>
